<svg width="40" height="40" viewBox="0 0 40 40" fill="none" xmlns="http://www.w3.org/2000/svg">
<g clip-path="url(#clip0)">
<path d="M34.0809 34.0816H28.1542V24.7998C28.1542 22.5865 28.1147 19.7373 25.0716 19.7373C21.9848 19.7373 21.5125 22.1488 21.5125 24.6387V34.0809H15.5858V14.9939H21.2754V17.6024H21.3551C22.5152 15.6187 24.6724 14.4339 26.9688 14.5192C32.9758 14.5192 34.0834 18.4704 34.0834 23.6107L34.0809 34.0816ZM8.89841 12.3849C6.9989 12.3852 5.45876 10.8456 5.45842 8.94604C5.45808 7.04649 6.99766 5.50632 8.89717 5.50598C10.7967 5.50564 12.3368 7.04525 12.3372 8.9448C12.3373 9.857 11.9751 10.7319 11.3302 11.377C10.6853 12.0222 9.81058 12.3847 8.89841 12.3849ZM11.8618 34.0816H5.92886V14.9939H11.8618V34.0816ZM37.0356 0.00200606H2.95067C1.33974 -0.0161736 0.0186839 1.27424 -0.000976562 2.88519V37.1123C0.0180108 38.724 1.33896 40.0157 2.95067 39.9988H37.0356C38.6505 40.0188 39.9767 38.7272 39.999 37.1123V2.88272C39.976 1.26859 38.6498 -0.0217518 37.0356 -0.000723144" fill="black"/>
</g>
<defs>
<clipPath id="clip0">
<rect width="40" height="40" fill="white"/>
</clipPath>
</defs>
</svg>
